# xmcd
#
# Track frame offsets: 
#        150
#        18240
#        32993
#        48988
#        68792
#        77595
#        94125
#        111010
#        130368
#        150461
#        162898
#        177951
#        189105
#
# Disc length: 2686 seconds
#
# Revision: 0
# Processed by: cddbd v1.5.2PL0 Copyright (c) Steve Scherf et al.
# Submitted via: ExactAudioCopy v1.0b2
#
DISCID=9a0a7c0d
DTITLE=Khanh Ly - Ca Khuc Da Vang (Vol 1 CD 1)
DYEAR=1900
DGENRE=Blues
TTITLE0=Loi Gioi Thieu
TTITLE1=Cho Nhin Que Huong Sang Choi
TTITLE2=Ca Dao Me
TTITLE3=Du Muc
TTITLE4=Nguoi Con Gai Viet Nam Da Vang
TTITLE5=Dai Bac Ru Dem
TTITLE6=Bai Ca Danh Cho Nhung Xac Nguoi
TTITLE7=Nguoi Gia Em Be
TTITLE8=Lai Gan Voi Nhau
TTITLE9=Hue - Sai Gon - Ha Noi
TTITLE10=Nuoc Mat Que Huong
TTITLE11=Toi Se Di Tham
TTITLE12=Noi Vong Tay Lon
EXTD=
EXTT0=
EXTT1=
EXTT2=
EXTT3=
EXTT4=
EXTT5=
EXTT6=
EXTT7=
EXTT8=
EXTT9=
EXTT10=
EXTT11=
EXTT12=
PLAYORDER=
